<svg width="15" height="11" viewBox="0 0 15 11" fill="none" xmlns="http://www.w3.org/2000/svg">
<path d="M0.15 11H3.45H3.6V10.12C3.28572 10.0571 3.12305 9.98994 2.85 9.82668L4.35 7.62668L5.85 9.82668C5.63914 9.97517 5.4769 10.0401 5.1 10.12V11H9V10.12C7.90542 9.83349 7.08247 8.3149 5.7 6.16001L7.95 2.93334L8.85 3.52L9 0L5.55 1.46667L6.6 2.2L4.8 4.84001L3.45 2.78667C3.63572 2.60968 3.78637 2.53754 4.2 2.49332V1.61334H0V2.49332C1.17242 2.29977 1.90317 4.05078 3.6 6.45333C2.30228 8.21527 1.62357 9.52906 0.15 10.12V11Z" fill="#4FBBAC"/>
<path d="M10 8.5L8.5 6.5H14.5C14.7761 6.5 15 6.72386 15 7V8C15 8.27614 14.7761 8.5 14.5 8.5H10Z" fill="#4FBBAC"/>
<rect x="10" y="1.5" width="5" height="2" rx="0.5" fill="#4FBBAC"/>
<rect x="10" y="9" width="5" height="2" rx="0.5" fill="#4FBBAC"/>
<path d="M8 6L9.5 4H14.5C14.7761 4 15 4.22386 15 4.5V5.5C15 5.77614 14.7761 6 14.5 6H8Z" fill="#4FBBAC"/>
<path d="M12.1288 2.11597L11.8387 3H11.6051L12.0013 1.93359H12.15L12.1288 2.11597ZM12.3698 3L12.079 2.11597L12.0555 1.93359H12.2057L12.6041 3H12.3698ZM12.3566 2.60303V2.77515H11.7933V2.60303H12.3566ZM13.1952 1.9314V3H12.9843V2.17456L12.7308 2.25513V2.08887L13.1725 1.9314H13.1952Z" fill="white"/>
<path d="M12.0127 5.13199H11.7388L11.7373 4.98111H11.9673C12.0078 4.98111 12.041 4.97598 12.0669 4.96573C12.0928 4.95499 12.1121 4.93961 12.1248 4.91959C12.1379 4.89908 12.1445 4.87418 12.1445 4.84488C12.1445 4.81168 12.1382 4.78482 12.1255 4.76431C12.1133 4.7438 12.094 4.72891 12.0676 4.71964C12.0417 4.71036 12.0083 4.70572 11.9673 4.70572H11.8149V5.60001H11.5952V4.5336H11.9673C12.0293 4.5336 12.0847 4.53946 12.1335 4.55118C12.1829 4.5629 12.2246 4.58072 12.2588 4.60464C12.293 4.62857 12.3191 4.65884 12.3372 4.69547C12.3552 4.7316 12.3643 4.77457 12.3643 4.82437C12.3643 4.86832 12.3542 4.90884 12.3342 4.94595C12.3147 4.98306 12.2837 5.01334 12.2412 5.03677C12.1992 5.06021 12.1443 5.07315 12.0764 5.07559L12.0127 5.13199ZM12.0032 5.60001H11.6787L11.7644 5.42862H12.0032C12.0417 5.42862 12.0732 5.42252 12.0977 5.41031C12.1221 5.39761 12.1401 5.38052 12.1519 5.35904C12.1636 5.33755 12.1694 5.3129 12.1694 5.28506C12.1694 5.25381 12.1641 5.22672 12.1533 5.20377C12.1431 5.18082 12.1265 5.16324 12.1035 5.15103C12.0806 5.13834 12.0503 5.13199 12.0127 5.13199H11.801L11.8025 4.98111H12.0662L12.1167 5.04044C12.1816 5.03946 12.2339 5.05093 12.2734 5.07486C12.3135 5.0983 12.3425 5.12881 12.3606 5.16641C12.3792 5.20401 12.3884 5.24429 12.3884 5.28726C12.3884 5.35562 12.3735 5.41324 12.3438 5.46011C12.314 5.5065 12.2703 5.54141 12.2126 5.56485C12.1555 5.58829 12.0857 5.60001 12.0032 5.60001ZM13.0454 4.5314V5.60001H12.8345V4.77457L12.5811 4.85513V4.68887L13.0227 4.5314H13.0454Z" fill="white"/>
<path d="M12.2134 10.1462H12.4324C12.428 10.218 12.4082 10.2817 12.373 10.3374C12.3384 10.3931 12.2898 10.4365 12.2273 10.4678C12.1653 10.499 12.0906 10.5146 12.0032 10.5146C11.9348 10.5146 11.8735 10.5029 11.8193 10.4795C11.7651 10.4556 11.7188 10.4214 11.6802 10.377C11.6421 10.3325 11.613 10.2788 11.593 10.2158C11.573 10.1528 11.563 10.0823 11.563 10.0042V9.93018C11.563 9.85205 11.5732 9.78149 11.5938 9.71851C11.6147 9.65503 11.6445 9.60107 11.6831 9.55664C11.7222 9.51221 11.7688 9.47803 11.823 9.4541C11.8772 9.43018 11.9377 9.41821 12.0046 9.41821C12.0935 9.41821 12.1685 9.43433 12.2295 9.46655C12.291 9.49878 12.3386 9.54321 12.3723 9.59985C12.4065 9.65649 12.427 9.72095 12.4338 9.79321H12.2141C12.2117 9.75024 12.2031 9.71387 12.1885 9.68408C12.1738 9.65381 12.1516 9.6311 12.1218 9.61597C12.0925 9.60034 12.0535 9.59253 12.0046 9.59253C11.968 9.59253 11.936 9.59937 11.9087 9.61304C11.8813 9.62671 11.8584 9.64746 11.8398 9.67529C11.8213 9.70312 11.8074 9.73828 11.7981 9.78076C11.7893 9.82275 11.7849 9.87207 11.7849 9.92871V10.0042C11.7849 10.0593 11.7891 10.1079 11.7974 10.1499C11.8057 10.1914 11.8184 10.2266 11.8354 10.2554C11.853 10.2837 11.8755 10.3052 11.9028 10.3198C11.9307 10.334 11.9641 10.3411 12.0032 10.3411C12.0491 10.3411 12.0869 10.3337 12.1167 10.3191C12.1465 10.3044 12.1692 10.2827 12.1848 10.2539C12.2009 10.2251 12.2104 10.1892 12.2134 10.1462ZM13.0688 9.4314V10.5H12.8579V9.67456L12.6045 9.75513V9.58887L13.0461 9.4314H13.0688Z" fill="white"/>
<path d="M12.0127 7.63199H11.7388L11.7373 7.48111H11.9673C12.0078 7.48111 12.041 7.47598 12.0669 7.46573C12.0928 7.45499 12.1121 7.43961 12.1248 7.41959C12.1379 7.39908 12.1445 7.37418 12.1445 7.34488C12.1445 7.31168 12.1382 7.28482 12.1255 7.26431C12.1133 7.2438 12.094 7.22891 12.0676 7.21964C12.0417 7.21036 12.0083 7.20572 11.9673 7.20572H11.8149V8.10001H11.5952V7.0336H11.9673C12.0293 7.0336 12.0847 7.03946 12.1335 7.05118C12.1829 7.0629 12.2246 7.08072 12.2588 7.10464C12.293 7.12857 12.3191 7.15884 12.3372 7.19547C12.3552 7.2316 12.3643 7.27457 12.3643 7.32437C12.3643 7.36832 12.3542 7.40884 12.3342 7.44595C12.3147 7.48306 12.2837 7.51334 12.2412 7.53677C12.1992 7.56021 12.1443 7.57315 12.0764 7.57559L12.0127 7.63199ZM12.0032 8.10001H11.6787L11.7644 7.92862H12.0032C12.0417 7.92862 12.0732 7.92252 12.0977 7.91031C12.1221 7.89761 12.1401 7.88052 12.1519 7.85904C12.1636 7.83755 12.1694 7.8129 12.1694 7.78506C12.1694 7.75381 12.1641 7.72672 12.1533 7.70377C12.1431 7.68082 12.1265 7.66324 12.1035 7.65103C12.0806 7.63834 12.0503 7.63199 12.0127 7.63199H11.801L11.8025 7.48111H12.0662L12.1167 7.54044C12.1816 7.53946 12.2339 7.55093 12.2734 7.57486C12.3135 7.5983 12.3425 7.62881 12.3606 7.66641C12.3792 7.70401 12.3884 7.74429 12.3884 7.78726C12.3884 7.85562 12.3735 7.91324 12.3438 7.96011C12.314 8.0065 12.2703 8.04141 12.2126 8.06485C12.1555 8.08829 12.0857 8.10001 12.0032 8.10001ZM13.2607 7.93521V8.10001H12.5312V7.95938L12.8762 7.58951C12.9109 7.55093 12.9382 7.517 12.9583 7.4877C12.9783 7.45792 12.9927 7.4313 13.0015 7.40787C13.0107 7.38394 13.0154 7.36124 13.0154 7.33975C13.0154 7.30753 13.01 7.27994 12.9993 7.25699C12.9885 7.23355 12.9727 7.21548 12.9517 7.20279C12.9312 7.19009 12.9058 7.18375 12.8755 7.18375C12.8433 7.18375 12.8154 7.19156 12.792 7.20718C12.769 7.22281 12.7515 7.24454 12.7393 7.27237C12.7275 7.3002 12.7217 7.3317 12.7217 7.36685H12.51C12.51 7.30338 12.5251 7.24527 12.5554 7.19254C12.5857 7.13931 12.6284 7.09708 12.6836 7.06583C12.7388 7.03409 12.8042 7.01822 12.8799 7.01822C12.9546 7.01822 13.0176 7.03043 13.0688 7.05484C13.1206 7.07877 13.1597 7.11343 13.186 7.15884C13.2129 7.20377 13.2263 7.25748 13.2263 7.31998C13.2263 7.35513 13.2207 7.38956 13.2095 7.42325C13.1982 7.45645 13.1821 7.48965 13.1611 7.52286C13.1406 7.55557 13.1157 7.58878 13.0864 7.62247C13.0571 7.65616 13.0247 7.69107 12.989 7.7272L12.8037 7.93521H13.2607Z" fill="white"/>
</svg>
