<svg width="47" height="14" viewBox="0 0 47 14" fill="none" xmlns="http://www.w3.org/2000/svg">
<path d="M42 10.5L40.5 8.5H46.5C46.7761 8.5 47 8.72386 47 9V10C47 10.2761 46.7761 10.5 46.5 10.5H42Z" fill="#4FBBAC"/>
<path d="M0.328125 13V11.9746L1.23633 11.7988V5.67578L0.328125 5.5V4.46875H1.23633H3.76758L6.09375 10.416H6.12891L8.37891 4.46875H11.8242V5.5L10.9102 5.67578V11.7988L11.8242 11.9746V13H8.29102V11.9746L9.24609 11.7988V10.1641L9.27539 6.31445L9.24023 6.30859L6.69141 12.8828H5.39648L2.78906 6.36133L2.75391 6.36719L2.85352 9.98828V11.7988L3.86133 11.9746V13H0.328125ZM15.1641 13.123C14.4961 13.123 13.9707 12.9121 13.5879 12.4902C13.209 12.0645 13.0195 11.4043 13.0195 10.5098V7.86719L12.3223 7.69141V6.66016H13.0195H14.7305V10.5215C14.7305 10.9746 14.8086 11.3008 14.9648 11.5C15.125 11.6953 15.3652 11.793 15.6855 11.793C15.9395 11.793 16.1641 11.7441 16.3594 11.6465C16.5547 11.5449 16.7148 11.4023 16.8398 11.2188V7.86719L16.084 7.69141V6.66016H16.8398H18.5508V11.7988L19.3125 11.9746V13H17.0508L16.9336 12.1973C16.7344 12.4941 16.4844 12.7227 16.1836 12.8828C15.8828 13.043 15.543 13.123 15.1641 13.123ZM19.8574 13V11.9746L20.6836 11.7988V5.06641L19.7695 4.89062V3.85938H22.3945V11.7988L23.2207 11.9746V13H19.8574ZM26.2734 13.123C25.6836 13.123 25.2285 12.9609 24.9082 12.6367C24.5918 12.3125 24.4336 11.7988 24.4336 11.0957V7.86133H23.5605V6.66016H24.4336V5.10742H26.1387V6.66016H27.3047V7.86133H26.1387V11.0898C26.1387 11.3359 26.1895 11.5117 26.291 11.6172C26.3965 11.7227 26.5391 11.7754 26.7188 11.7754C26.8164 11.7754 26.918 11.7695 27.0234 11.7578C27.1328 11.7422 27.2266 11.7266 27.3047 11.7109L27.4512 12.9473C27.2754 12.998 27.084 13.0391 26.877 13.0703C26.6738 13.1055 26.4727 13.123 26.2734 13.123ZM28.1836 13V11.9746L29.0098 11.7988V7.86719L28.0957 7.69141V6.66016H30.7207V11.7988L31.541 11.9746V13H28.1836ZM28.9512 5.31836V3.85938H30.7207V5.31836H28.9512Z" fill="#194550"/>
<path d="M32.15 13H35.45H35.6V12.12C35.2857 12.0571 35.123 11.9899 34.85 11.8267L36.35 9.62668L37.85 11.8267C37.6391 11.9752 37.4769 12.0401 37.1 12.12V13H41V12.12C39.9054 11.8335 39.0825 10.3149 37.7 8.16001L39.95 4.93334L40.85 5.52L41 2L37.55 3.46667L38.6 4.2L36.8 6.84001L35.45 4.78667C35.6357 4.60968 35.7864 4.53754 36.2 4.49332V3.61334H32V4.49332C33.1724 4.29977 33.9032 6.05078 35.6 8.45333C34.3023 10.2153 33.6236 11.5291 32.15 12.12V13Z" fill="#4FBBAC"/>
<rect x="42" y="3.5" width="5" height="2" rx="0.5" fill="#4FBBAC"/>
<rect x="42" y="11" width="5" height="2" rx="0.5" fill="#4FBBAC"/>
<path d="M40 8L41.5 6H46.5C46.7761 6 47 6.22386 47 6.5V7.5C47 7.77614 46.7761 8 46.5 8H40Z" fill="#4FBBAC"/>
<path d="M44.1288 4.11597L43.8387 5H43.6051L44.0013 3.93359H44.15L44.1288 4.11597ZM44.3698 5L44.079 4.11597L44.0555 3.93359H44.2057L44.6041 5H44.3698ZM44.3566 4.60303V4.77515H43.7933V4.60303H44.3566ZM45.1952 3.9314V5H44.9843V4.17456L44.7308 4.25513V4.08887L45.1725 3.9314H45.1952Z" fill="white"/>
<path d="M44.0127 7.13199H43.7388L43.7373 6.98111H43.9673C44.0078 6.98111 44.041 6.97598 44.0669 6.96573C44.0928 6.95499 44.1121 6.93961 44.1248 6.91959C44.1379 6.89908 44.1445 6.87418 44.1445 6.84488C44.1445 6.81168 44.1382 6.78482 44.1255 6.76431C44.1133 6.7438 44.094 6.72891 44.0676 6.71964C44.0417 6.71036 44.0083 6.70572 43.9673 6.70572H43.8149V7.60001H43.5952V6.5336H43.9673C44.0293 6.5336 44.0847 6.53946 44.1335 6.55118C44.1829 6.5629 44.2246 6.58072 44.2588 6.60464C44.293 6.62857 44.3191 6.65884 44.3372 6.69547C44.3552 6.7316 44.3643 6.77457 44.3643 6.82437C44.3643 6.86832 44.3542 6.90884 44.3342 6.94595C44.3147 6.98306 44.2837 7.01334 44.2412 7.03677C44.1992 7.06021 44.1443 7.07315 44.0764 7.07559L44.0127 7.13199ZM44.0032 7.60001H43.6787L43.7644 7.42862H44.0032C44.0417 7.42862 44.0732 7.42252 44.0977 7.41031C44.1221 7.39761 44.1401 7.38052 44.1519 7.35904C44.1636 7.33755 44.1694 7.3129 44.1694 7.28506C44.1694 7.25381 44.1641 7.22672 44.1533 7.20377C44.1431 7.18082 44.1265 7.16324 44.1035 7.15103C44.0806 7.13834 44.0503 7.13199 44.0127 7.13199H43.801L43.8025 6.98111H44.0662L44.1167 7.04044C44.1816 7.03946 44.2339 7.05093 44.2734 7.07486C44.3135 7.0983 44.3425 7.12881 44.3606 7.16641C44.3792 7.20401 44.3884 7.24429 44.3884 7.28726C44.3884 7.35562 44.3735 7.41324 44.3438 7.46011C44.314 7.5065 44.2703 7.54141 44.2126 7.56485C44.1555 7.58829 44.0857 7.60001 44.0032 7.60001ZM45.0454 6.5314V7.60001H44.8345V6.77457L44.5811 6.85513V6.68887L45.0227 6.5314H45.0454Z" fill="white"/>
<path d="M44.2134 12.1462H44.4324C44.428 12.218 44.4082 12.2817 44.373 12.3374C44.3384 12.3931 44.2898 12.4365 44.2273 12.4678C44.1653 12.499 44.0906 12.5146 44.0032 12.5146C43.9348 12.5146 43.8735 12.5029 43.8193 12.4795C43.7651 12.4556 43.7188 12.4214 43.6802 12.377C43.6421 12.3325 43.613 12.2788 43.593 12.2158C43.573 12.1528 43.563 12.0823 43.563 12.0042V11.9302C43.563 11.8521 43.5732 11.7815 43.5938 11.7185C43.6147 11.655 43.6445 11.6011 43.6831 11.5566C43.7222 11.5122 43.7688 11.478 43.823 11.4541C43.8772 11.4302 43.9377 11.4182 44.0046 11.4182C44.0935 11.4182 44.1685 11.4343 44.2295 11.4666C44.291 11.4988 44.3386 11.5432 44.3723 11.5999C44.4065 11.6565 44.427 11.7209 44.4338 11.7932H44.2141C44.2117 11.7502 44.2031 11.7139 44.1885 11.6841C44.1738 11.6538 44.1516 11.6311 44.1218 11.616C44.0925 11.6003 44.0535 11.5925 44.0046 11.5925C43.968 11.5925 43.936 11.5994 43.9087 11.613C43.8813 11.6267 43.8584 11.6475 43.8398 11.6753C43.8213 11.7031 43.8074 11.7383 43.7981 11.7808C43.7893 11.8228 43.7849 11.8721 43.7849 11.9287V12.0042C43.7849 12.0593 43.7891 12.1079 43.7974 12.1499C43.8057 12.1914 43.8184 12.2266 43.8354 12.2554C43.853 12.2837 43.8755 12.3052 43.9028 12.3198C43.9307 12.334 43.9641 12.3411 44.0032 12.3411C44.0491 12.3411 44.0869 12.3337 44.1167 12.3191C44.1465 12.3044 44.1692 12.2827 44.1848 12.2539C44.2009 12.2251 44.2104 12.1892 44.2134 12.1462ZM45.0688 11.4314V12.5H44.8579V11.6746L44.6045 11.7551V11.5889L45.0461 11.4314H45.0688Z" fill="white"/>
<path d="M44.0127 9.63199H43.7388L43.7373 9.48111H43.9673C44.0078 9.48111 44.041 9.47598 44.0669 9.46573C44.0928 9.45499 44.1121 9.43961 44.1248 9.41959C44.1379 9.39908 44.1445 9.37418 44.1445 9.34488C44.1445 9.31168 44.1382 9.28482 44.1255 9.26431C44.1133 9.2438 44.094 9.22891 44.0676 9.21964C44.0417 9.21036 44.0083 9.20572 43.9673 9.20572H43.8149V10.1H43.5952V9.0336H43.9673C44.0293 9.0336 44.0847 9.03946 44.1335 9.05118C44.1829 9.0629 44.2246 9.08072 44.2588 9.10464C44.293 9.12857 44.3191 9.15884 44.3372 9.19547C44.3552 9.2316 44.3643 9.27457 44.3643 9.32437C44.3643 9.36832 44.3542 9.40884 44.3342 9.44595C44.3147 9.48306 44.2837 9.51334 44.2412 9.53677C44.1992 9.56021 44.1443 9.57315 44.0764 9.57559L44.0127 9.63199ZM44.0032 10.1H43.6787L43.7644 9.92862H44.0032C44.0417 9.92862 44.0732 9.92252 44.0977 9.91031C44.1221 9.89761 44.1401 9.88052 44.1519 9.85904C44.1636 9.83755 44.1694 9.8129 44.1694 9.78506C44.1694 9.75381 44.1641 9.72672 44.1533 9.70377C44.1431 9.68082 44.1265 9.66324 44.1035 9.65103C44.0806 9.63834 44.0503 9.63199 44.0127 9.63199H43.801L43.8025 9.48111H44.0662L44.1167 9.54044C44.1816 9.53946 44.2339 9.55093 44.2734 9.57486C44.3135 9.5983 44.3425 9.62881 44.3606 9.66641C44.3792 9.70401 44.3884 9.74429 44.3884 9.78726C44.3884 9.85562 44.3735 9.91324 44.3438 9.96011C44.314 10.0065 44.2703 10.0414 44.2126 10.0648C44.1555 10.0883 44.0857 10.1 44.0032 10.1ZM45.2607 9.93521V10.1H44.5312V9.95938L44.8762 9.58951C44.9109 9.55093 44.9382 9.517 44.9583 9.4877C44.9783 9.45792 44.9927 9.4313 45.0015 9.40787C45.0107 9.38394 45.0154 9.36124 45.0154 9.33975C45.0154 9.30753 45.01 9.27994 44.9993 9.25699C44.9885 9.23355 44.9727 9.21548 44.9517 9.20279C44.9312 9.19009 44.9058 9.18375 44.8755 9.18375C44.8433 9.18375 44.8154 9.19156 44.792 9.20718C44.769 9.22281 44.7515 9.24454 44.7393 9.27237C44.7275 9.3002 44.7217 9.3317 44.7217 9.36685H44.51C44.51 9.30338 44.5251 9.24527 44.5554 9.19254C44.5857 9.13931 44.6284 9.09708 44.6836 9.06583C44.7388 9.03409 44.8042 9.01822 44.8799 9.01822C44.9546 9.01822 45.0176 9.03043 45.0688 9.05484C45.1206 9.07877 45.1597 9.11343 45.186 9.15884C45.2129 9.20377 45.2263 9.25748 45.2263 9.31998C45.2263 9.35513 45.2207 9.38956 45.2095 9.42325C45.1982 9.45645 45.1821 9.48965 45.1611 9.52286C45.1406 9.55557 45.1157 9.58878 45.0864 9.62247C45.0571 9.65616 45.0247 9.69107 44.989 9.7272L44.8037 9.93521H45.2607Z" fill="white"/>
</svg>
