<svg width="9" height="11" viewBox="0 0 9 11" fill="none" xmlns="http://www.w3.org/2000/svg">
<path d="M0.15 11H3.45H3.6V10.12C3.28572 10.0571 3.12305 9.98994 2.85 9.82668L4.35 7.62668L5.85 9.82668C5.63914 9.97517 5.4769 10.0401 5.1 10.12V11H9V10.12C7.90542 9.83349 7.08247 8.3149 5.7 6.16001L7.95 2.93334L8.85 3.52L9 0L5.55 1.46667L6.6 2.2L4.8 4.84001L3.45 2.78667C3.63572 2.60968 3.78637 2.53754 4.2 2.49332V1.61334H0V2.49332C1.17242 2.29977 1.90317 4.05078 3.6 6.45333C2.30228 8.21527 1.62357 9.52906 0.15 10.12V11Z" fill="#4FBBAC"/>
</svg>
